<svg width="296" height="296" viewBox="0 0 296 296" fill="none" xmlns="http://www.w3.org/2000/svg">
<g filter="url(#filter0_ddd_2572_558)">
<path d="M120 148C120 132.536 132.536 120 148 120C163.464 120 176 132.536 176 148C176 163.464 163.464 176 148 176C132.536 176 120 163.464 120 148Z" fill="#8B5CF6" shape-rendering="crispEdges"/>
<path d="M148 157.333H148.012" stroke="white" stroke-width="2.33333" stroke-linecap="round" stroke-linejoin="round"/>
<path d="M136.333 144.29C139.542 141.42 143.695 139.834 148 139.834C152.305 139.834 156.458 141.42 159.667 144.29" stroke="white" stroke-width="2.33333" stroke-linecap="round" stroke-linejoin="round"/>
<path d="M139.833 149.002C142.014 146.865 144.946 145.667 148 145.667C151.054 145.667 153.986 146.865 156.167 149.002" stroke="white" stroke-width="2.33333" stroke-linecap="round" stroke-linejoin="round"/>
<path d="M143.917 153.167C145.007 152.098 146.473 151.5 148 151.5C149.527 151.5 150.993 152.098 152.083 153.167" stroke="white" stroke-width="2.33333" stroke-linecap="round" stroke-linejoin="round"/>
</g>
<defs>
<filter id="filter0_ddd_2572_558" x="0" y="0" width="296" height="296" filterUnits="userSpaceOnUse" color-interpolation-filters="sRGB">
<feFlood flood-opacity="0" result="BackgroundImageFix"/>
<feColorMatrix in="SourceAlpha" type="matrix" values="0 0 0 0 0 0 0 0 0 0 0 0 0 0 0 0 0 0 127 0" result="hardAlpha"/>
<feOffset/>
<feGaussianBlur stdDeviation="60"/>
<feComposite in2="hardAlpha" operator="out"/>
<feColorMatrix type="matrix" values="0 0 0 0 0.545098 0 0 0 0 0.360784 0 0 0 0 0.964706 0 0 0 0.4 0"/>
<feBlend mode="normal" in2="BackgroundImageFix" result="effect1_dropShadow_2572_558"/>
<feColorMatrix in="SourceAlpha" type="matrix" values="0 0 0 0 0 0 0 0 0 0 0 0 0 0 0 0 0 0 127 0" result="hardAlpha"/>
<feOffset/>
<feGaussianBlur stdDeviation="40"/>
<feComposite in2="hardAlpha" operator="out"/>
<feColorMatrix type="matrix" values="0 0 0 0 0.545098 0 0 0 0 0.360784 0 0 0 0 0.964706 0 0 0 0.6 0"/>
<feBlend mode="normal" in2="effect1_dropShadow_2572_558" result="effect2_dropShadow_2572_558"/>
<feColorMatrix in="SourceAlpha" type="matrix" values="0 0 0 0 0 0 0 0 0 0 0 0 0 0 0 0 0 0 127 0" result="hardAlpha"/>
<feOffset/>
<feGaussianBlur stdDeviation="20"/>
<feComposite in2="hardAlpha" operator="out"/>
<feColorMatrix type="matrix" values="0 0 0 0 0.545098 0 0 0 0 0.360784 0 0 0 0 0.964706 0 0 0 0.8 0"/>
<feBlend mode="normal" in2="effect2_dropShadow_2572_558" result="effect3_dropShadow_2572_558"/>
<feBlend mode="normal" in="SourceGraphic" in2="effect3_dropShadow_2572_558" result="shape"/>
</filter>
</defs>
</svg>
