<svg width="110" height="110" viewBox="0 0 110 110" fill="none" xmlns="http://www.w3.org/2000/svg">
<g filter="url(#filter0_d_2572_597)">
<mask id="path-1-inside-1_2572_597" fill="white">
<path d="M20 55C20 35.67 35.67 20 55 20C74.33 20 90 35.67 90 55C90 74.33 74.33 90 55 90C35.67 90 20 74.33 20 55Z"/>
</mask>
<path d="M20 55C20 35.67 35.67 20 55 20C74.33 20 90 35.67 90 55C90 74.33 74.33 90 55 90C35.67 90 20 74.33 20 55Z" fill="url(#paint0_linear_2572_597)" shape-rendering="crispEdges"/>
<path d="M55 90V89C36.2223 89 21 73.7777 21 55H20H19C19 74.8823 35.1177 91 55 91V90ZM90 55H89C89 73.7777 73.7777 89 55 89V90V91C74.8823 91 91 74.8823 91 55H90ZM55 20V21C73.7777 21 89 36.2223 89 55H90H91C91 35.1177 74.8823 19 55 19V20ZM55 20V19C35.1177 19 19 35.1177 19 55H20H21C21 36.2223 36.2223 21 55 21V20Z" fill="white" fill-opacity="0.4" mask="url(#path-1-inside-1_2572_597)"/>
<g clip-path="url(#clip0_2572_597)">
<path d="M49.2445 53.0913V51.8776C48.7924 51.818 48.3369 51.7872 47.8809 51.7853C42.3034 51.7853 37.7649 56.0162 37.7649 61.2167C37.7649 64.4062 39.4754 67.2307 42.0837 68.9377C40.3371 67.1964 39.3655 64.9012 39.3671 62.517C39.3671 57.3909 43.7761 53.2106 49.2445 53.0913Z" fill="#00F2EA"/>
<path d="M49.5127 66.4874C51.8709 66.4874 53.7938 64.6309 53.8815 62.3161L53.8897 41.658H57.7026C57.6209 41.2269 57.5795 40.7891 57.5787 40.3503H52.3719L52.3629 61.0093C52.276 63.3224 50.3515 65.1789 47.9941 65.1789C47.2869 65.179 46.5902 65.008 45.9639 64.6807C46.3697 65.2401 46.903 65.6955 47.52 66.0096C48.1369 66.3237 48.8199 66.4874 49.5127 66.4874ZM64.8232 48.6701V47.5217C63.4234 47.5233 62.0533 47.1201 60.8791 46.3611C61.9097 47.5343 63.2927 48.3443 64.8232 48.6701Z" fill="#00F2EA"/>
<path d="M60.724 46.6543C59.579 45.3658 58.9467 43.7046 58.9463 41.9839H57.5548C57.7369 42.936 58.1118 43.8411 58.6567 44.6441C59.2016 45.4471 59.905 46.131 60.724 46.6543ZM47.871 56.7391C45.4603 56.7424 43.5071 58.6675 43.5046 61.0435C43.5072 61.8312 43.7267 62.6031 44.1394 63.275C44.552 63.9468 45.142 64.493 45.8448 64.8538C45.3085 64.126 45.019 63.2468 45.0183 62.3439C45.0208 59.967 46.9739 58.041 49.3846 58.0386C49.8356 58.0386 50.2661 58.1121 50.6736 58.2379V53.0105C50.2466 52.9507 49.8159 52.9196 49.3846 52.9174C49.3092 52.9174 49.2346 52.9223 49.16 52.9231V56.9384C48.7429 56.8076 48.3083 56.7404 47.871 56.7391Z" fill="#FF004F"/>
<path d="M64.1294 49.335V53.3241C61.5392 53.328 59.0126 52.5252 56.903 51.0282V61.456C56.903 66.6647 52.6146 70.9021 47.3438 70.9021C45.3062 70.9021 43.417 70.2667 41.8647 69.1893C42.7608 70.1423 43.8439 70.9016 45.0468 71.4204C46.2496 71.9391 47.5467 72.2061 48.8575 72.2049C54.129 72.2049 58.4175 67.9674 58.4175 62.7596V52.3309C60.5272 53.8277 63.0538 54.6302 65.6439 54.6261V49.4942C65.1349 49.4941 64.6272 49.4407 64.1294 49.335Z" fill="#FF004F"/>
<path d="M57.4269 61.113V50.6679C59.5979 52.1712 62.1799 52.9741 64.8239 52.968V48.9739C63.2692 48.6534 61.858 47.8464 60.7962 46.6706C59.0972 45.6031 57.9246 43.9099 57.5524 41.9839H53.66L53.6518 62.5791C53.5616 64.8857 51.5977 66.7365 49.1911 66.7365C47.7529 66.7349 46.4049 66.0651 45.5669 64.9363C44.0958 64.1906 43.1734 62.718 43.1725 61.1122C43.175 58.7271 45.1733 56.7955 47.6414 56.7922C48.1006 56.7922 48.5417 56.8657 48.9599 56.9923V52.9631C43.6703 53.0832 39.4048 57.2757 39.4048 62.4166C39.4048 64.9037 40.4043 67.167 42.0328 68.8569C43.6864 69.9778 45.6412 70.5753 47.6414 70.5713C53.0368 70.5713 57.4269 66.3281 57.4269 61.113Z" fill="white"/>
</g>
</g>
<defs>
<filter id="filter0_d_2572_597" x="0" y="0" width="110" height="110" filterUnits="userSpaceOnUse" color-interpolation-filters="sRGB">
<feFlood flood-opacity="0" result="BackgroundImageFix"/>
<feColorMatrix in="SourceAlpha" type="matrix" values="0 0 0 0 0 0 0 0 0 0 0 0 0 0 0 0 0 0 127 0" result="hardAlpha"/>
<feOffset/>
<feGaussianBlur stdDeviation="10"/>
<feComposite in2="hardAlpha" operator="out"/>
<feColorMatrix type="matrix" values="0 0 0 0 0.545098 0 0 0 0 0.360784 0 0 0 0 0.964706 0 0 0 0.8 0"/>
<feBlend mode="normal" in2="BackgroundImageFix" result="effect1_dropShadow_2572_597"/>
<feBlend mode="normal" in="SourceGraphic" in2="effect1_dropShadow_2572_597" result="shape"/>
</filter>
<linearGradient id="paint0_linear_2572_597" x1="20" y1="20" x2="90" y2="90" gradientUnits="userSpaceOnUse">
<stop stop-color="white" stop-opacity="0.3"/>
<stop offset="1" stop-color="white" stop-opacity="0.1"/>
</linearGradient>
<clipPath id="clip0_2572_597">
<rect width="35" height="40" fill="white" transform="translate(37.5 35)"/>
</clipPath>
</defs>
</svg>
