<svg width="48" height="48" viewBox="0 0 48 48" fill="none" xmlns="http://www.w3.org/2000/svg">
<mask id="path-1-inside-1_2572_683" fill="white">
<path d="M0 24C0 10.7452 10.7452 0 24 0C37.2548 0 48 10.7452 48 24C48 37.2548 37.2548 48 24 48C10.7452 48 0 37.2548 0 24Z"/>
</mask>
<path d="M0 24C0 10.7452 10.7452 0 24 0C37.2548 0 48 10.7452 48 24C48 37.2548 37.2548 48 24 48C10.7452 48 0 37.2548 0 24Z" fill="url(#paint0_linear_2572_683)"/>
<path d="M24 48V47C11.2975 47 1 36.7025 1 24H0H-1C-1 37.8071 10.1929 49 24 49V48ZM48 24H47C47 36.7025 36.7025 47 24 47V48V49C37.8071 49 49 37.8071 49 24H48ZM24 0V1C36.7025 1 47 11.2975 47 24H48H49C49 10.1929 37.8071 -1 24 -1V0ZM24 0V-1C10.1929 -1 -1 10.1929 -1 24H0H1C1 11.2975 11.2975 1 24 1V0Z" fill="#8B5CF6" fill-opacity="0.4" mask="url(#path-1-inside-1_2572_683)"/>
<path d="M17.4013 33H16.4013C16.4013 33.5523 16.849 34 17.4013 34V33ZM17.4013 29.5909L16.7639 28.8204C16.5342 29.0104 16.4013 29.2929 16.4013 29.5909H17.4013ZM23.9126 24.2045L24.55 24.9751L24.5508 24.9744L23.9126 24.2045ZM25.0206 23.1989L24.3071 22.4982L24.307 22.4983L25.0206 23.1989ZM25.7365 22.2188L24.845 21.7655L24.8391 21.7776L25.7365 22.2188ZM25.7024 19.9517L24.8408 20.4594L24.8476 20.4707L25.7024 19.9517ZM24.9183 19.2188L24.4532 20.1041L24.4651 20.1101L24.9183 19.2188ZM22.6001 19.2188L22.135 18.3335L22.1288 18.3368L22.6001 19.2188ZM21.8331 19.9943L20.9507 19.5237V19.5237L21.8331 19.9943ZM21.5604 21.2386V22.2386C22.1127 22.2386 22.5604 21.7909 22.5604 21.2386H21.5604ZM17.0604 21.2386H16.0604C16.0604 21.7909 16.5081 22.2386 17.0604 22.2386V21.2386ZM17.8871 18.0682L17.0379 17.5401L17.0379 17.5401L17.8871 18.0682ZM20.2223 16.0227L20.651 16.9262L20.2223 16.0227ZM27.3899 15.9801L26.988 16.8958L26.9942 16.8985L27.3899 15.9801ZM29.7678 17.8551L28.9447 18.4231L28.9474 18.427L29.7678 17.8551ZM30.1939 22.696L31.1151 23.0851L31.1163 23.0823L30.1939 22.696ZM28.6939 24.8864L29.4369 25.5556L28.6939 24.8864ZM25.6172 27.75L26.2574 28.5182L25.6172 27.75ZM23.9808 29.1136L23.3406 28.3454C23.1126 28.5354 22.9808 28.8169 22.9808 29.1136H23.9808ZM23.9808 29.2159H22.9808C22.9808 29.7682 23.4285 30.2159 23.9808 30.2159V29.2159ZM30.799 29.2159H31.799C31.799 28.6636 31.3513 28.2159 30.799 28.2159V29.2159ZM30.799 33V34C31.3513 34 31.799 33.5523 31.799 33H30.799ZM17.4013 33H18.4013V29.5909H17.4013H16.4013V33H17.4013ZM17.4013 29.5909L18.0387 30.3614L24.55 24.9751L23.9126 24.2045L23.2752 23.434L16.7639 28.8204L17.4013 29.5909ZM23.9126 24.2045L24.5508 24.9744C25.0021 24.6004 25.3979 24.242 25.7342 23.8995L25.0206 23.1989L24.307 22.4983C24.0297 22.7808 23.6869 23.0928 23.2745 23.4347L23.9126 24.2045ZM25.0206 23.1989L25.734 23.8996C26.1073 23.5196 26.414 23.1074 26.634 22.6599L25.7365 22.2188L24.8391 21.7776C24.7295 22.0006 24.5589 22.2418 24.3071 22.4982L25.0206 23.1989ZM25.7365 22.2188L26.6279 22.672C26.8759 22.1843 26.9922 21.6548 26.9922 21.1023H25.9922H24.9922C24.9922 21.3679 24.938 21.5828 24.8451 21.7655L25.7365 22.2188ZM25.9922 21.1023H26.9922C26.9922 20.5082 26.8633 19.9368 26.5572 19.4327L25.7024 19.9517L24.8476 20.4707C24.9279 20.603 24.9922 20.7986 24.9922 21.1023H25.9922ZM25.7024 19.9517L26.564 19.444C26.2778 18.9585 25.8734 18.5825 25.3716 18.3274L24.9183 19.2188L24.4651 20.1101C24.6337 20.1959 24.752 20.3086 24.8409 20.4594L25.7024 19.9517ZM24.9183 19.2188L25.3835 18.3335C24.8839 18.071 24.3335 17.9545 23.7592 17.9545V18.9545V19.9545C24.06 19.9545 24.2823 20.0142 24.4532 20.104L24.9183 19.2188ZM23.7592 18.9545V17.9545C23.185 17.9545 22.6345 18.071 22.135 18.3335L22.6001 19.2188L23.0653 20.104C23.2362 20.0142 23.4585 19.9545 23.7592 19.9545V18.9545ZM22.6001 19.2188L22.1288 18.3368C21.6183 18.6096 21.2224 19.0143 20.9507 19.5237L21.8331 19.9943L22.7154 20.4649C22.8074 20.2925 22.9229 20.1801 23.0715 20.1007L22.6001 19.2188ZM21.8331 19.9943L20.9507 19.5237C20.6739 20.0428 20.5604 20.6283 20.5604 21.2386H21.5604H22.5604C22.5604 20.8717 22.6287 20.6276 22.7154 20.4649L21.8331 19.9943ZM21.5604 21.2386V20.2386H17.0604V21.2386V22.2386H21.5604V21.2386ZM17.0604 21.2386H18.0604C18.0604 20.1647 18.2999 19.298 18.7363 18.5962L17.8871 18.0682L17.0379 17.5401C16.372 18.6111 16.0604 19.858 16.0604 21.2386H17.0604ZM17.8871 18.0682L18.7363 18.5962C19.1793 17.8837 19.8066 17.3269 20.651 16.9262L20.2223 16.0227L19.7936 15.1193C18.6267 15.6731 17.6971 16.4799 17.0379 17.5401L17.8871 18.0682ZM20.2223 16.0227L20.651 16.9262C21.4971 16.5246 22.524 16.3068 23.7592 16.3068V15.3068V14.3068C22.2899 14.3068 20.9589 14.5663 19.7936 15.1193L20.2223 16.0227ZM23.7592 15.3068V16.3068C25.0523 16.3068 26.1196 16.5146 26.988 16.8958L27.3899 15.9801L27.7918 15.0644C26.6148 14.5478 25.2616 14.3068 23.7592 14.3068V15.3068ZM27.3899 15.9801L26.9942 16.8985C27.8752 17.2781 28.5092 17.792 28.9447 18.4231L29.7678 17.8551L30.5908 17.2871C29.9127 16.3046 28.9614 15.5684 27.7857 15.0618L27.3899 15.9801ZM29.7678 17.8551L28.9474 18.427C29.3809 19.0488 29.6115 19.7904 29.6115 20.6932H30.6115H31.6115C31.6115 19.4255 31.2796 18.2751 30.5881 17.2832L29.7678 17.8551ZM30.6115 20.6932H29.6115C29.6115 21.2213 29.5026 21.758 29.2715 22.3097L30.1939 22.696L31.1163 23.0823C31.442 22.3045 31.6115 21.506 31.6115 20.6932H30.6115ZM30.1939 22.696L29.2727 22.3069C29.0537 22.8253 28.6318 23.4611 27.9509 24.2171L28.6939 24.8864L29.4369 25.5556C30.1992 24.7093 30.7772 23.885 31.1151 23.0851L30.1939 22.696ZM28.6939 24.8864L27.9509 24.2171C27.2743 24.9683 26.289 25.8884 24.977 26.9818L25.6172 27.75L26.2574 28.5182C27.6045 27.3956 28.6703 26.4067 29.4369 25.5556L28.6939 24.8864ZM25.6172 27.75L24.977 26.9818L23.3406 28.3454L23.9808 29.1136L24.621 29.8819L26.2574 28.5182L25.6172 27.75ZM23.9808 29.1136H22.9808V29.2159H23.9808H24.9808V29.1136H23.9808ZM23.9808 29.2159V30.2159H30.799V29.2159V28.2159H23.9808V29.2159ZM30.799 29.2159H29.799V33H30.799H31.799V29.2159H30.799ZM30.799 33V32H17.4013V33V34H30.799V33Z" fill="#8B5CF6"/>
<defs>
<linearGradient id="paint0_linear_2572_683" x1="0" y1="0" x2="48" y2="48" gradientUnits="userSpaceOnUse">
<stop stop-color="#8B5CF6" stop-opacity="0.3"/>
<stop offset="1" stop-color="#8B5CF6" stop-opacity="0.1"/>
</linearGradient>
</defs>
</svg>
