<svg width="48" height="48" viewBox="0 0 48 48" fill="none" xmlns="http://www.w3.org/2000/svg">
<mask id="path-1-inside-1_2572_674" fill="white">
<path d="M0 24C0 10.7452 10.7452 0 24 0C37.2548 0 48 10.7452 48 24C48 37.2548 37.2548 48 24 48C10.7452 48 0 37.2548 0 24Z"/>
</mask>
<path d="M0 24C0 10.7452 10.7452 0 24 0C37.2548 0 48 10.7452 48 24C48 37.2548 37.2548 48 24 48C10.7452 48 0 37.2548 0 24Z" fill="url(#paint0_linear_2572_674)"/>
<path d="M24 48V47C11.2975 47 1 36.7025 1 24H0H-1C-1 37.8071 10.1929 49 24 49V48ZM48 24H47C47 36.7025 36.7025 47 24 47V48V49C37.8071 49 49 37.8071 49 24H48ZM24 0V1C36.7025 1 47 11.2975 47 24H48H49C49 10.1929 37.8071 -1 24 -1V0ZM24 0V-1C10.1929 -1 -1 10.1929 -1 24H0H1C1 11.2975 11.2975 1 24 1V0Z" fill="#8B5CF6" fill-opacity="0.4" mask="url(#path-1-inside-1_2572_674)"/>
<path d="M28.1456 15.5455H29.1456C29.1456 14.9932 28.6979 14.5455 28.1456 14.5455V15.5455ZM28.1456 33V34C28.6979 34 29.1456 33.5523 29.1456 33H28.1456ZM23.407 33H22.407C22.407 33.5523 22.8547 34 23.407 34V33ZM23.407 19.9091H24.407C24.407 19.3568 23.9592 18.9091 23.407 18.9091V19.9091ZM23.3047 19.9091V18.9091C23.1239 18.9091 22.9465 18.9581 22.7913 19.0509L23.3047 19.9091ZM19.4865 22.1932H18.4865C18.4865 22.5532 18.68 22.8855 18.9932 23.0631C19.3064 23.2407 19.6909 23.2362 19.9999 23.0513L19.4865 22.1932ZM19.4865 18.1705L18.9651 17.3172C18.6678 17.4988 18.4865 17.8221 18.4865 18.1705H19.4865ZM23.782 15.5455V14.5455C23.598 14.5455 23.4175 14.5962 23.2605 14.6922L23.782 15.5455ZM28.1456 15.5455H27.1456V33H28.1456H29.1456V15.5455H28.1456ZM28.1456 33V32H23.407V33V34H28.1456V33ZM23.407 33H24.407V19.9091H23.407H22.407V33H23.407ZM23.407 19.9091V18.9091H23.3047V19.9091V20.9091H23.407V19.9091ZM23.3047 19.9091L22.7913 19.0509L18.9731 21.335L19.4865 22.1932L19.9999 23.0513L23.8181 20.7673L23.3047 19.9091ZM19.4865 22.1932H20.4865V18.1705H19.4865H18.4865V22.1932H19.4865ZM19.4865 18.1705L20.008 19.0237L24.3034 16.3987L23.782 15.5455L23.2605 14.6922L18.9651 17.3172L19.4865 18.1705ZM23.782 15.5455V16.5455H28.1456V15.5455V14.5455H23.782V15.5455Z" fill="#8B5CF6"/>
<defs>
<linearGradient id="paint0_linear_2572_674" x1="0" y1="0" x2="48" y2="48" gradientUnits="userSpaceOnUse">
<stop stop-color="#8B5CF6" stop-opacity="0.3"/>
<stop offset="1" stop-color="#8B5CF6" stop-opacity="0.1"/>
</linearGradient>
</defs>
</svg>
