<svg width="110" height="110" viewBox="0 0 110 110" fill="none" xmlns="http://www.w3.org/2000/svg">
<g filter="url(#filter0_d_2572_586)">
<mask id="path-1-inside-1_2572_586" fill="white">
<path d="M20 55C20 35.67 35.67 20 55 20C74.33 20 90 35.67 90 55C90 74.33 74.33 90 55 90C35.67 90 20 74.33 20 55Z"/>
</mask>
<path d="M20 55C20 35.67 35.67 20 55 20C74.33 20 90 35.67 90 55C90 74.33 74.33 90 55 90C35.67 90 20 74.33 20 55Z" fill="url(#paint0_linear_2572_586)" shape-rendering="crispEdges"/>
<path d="M55 90V89C36.2223 89 21 73.7777 21 55H20H19C19 74.8823 35.1177 91 55 91V90ZM90 55H89C89 73.7777 73.7777 89 55 89V90V91C74.8823 91 91 74.8823 91 55H90ZM55 20V21C73.7777 21 89 36.2223 89 55H90H91C91 35.1177 74.8823 19 55 19V20ZM55 20V19C35.1177 19 19 35.1177 19 55H20H21C21 36.2223 36.2223 21 55 21V20Z" fill="white" fill-opacity="0.4" mask="url(#path-1-inside-1_2572_586)"/>
<g clip-path="url(#clip0_2572_586)">
<g clip-path="url(#clip1_2572_586)">
<path d="M74.1637 45.3725C73.7028 43.6505 72.3494 42.2973 70.6273 41.8363C67.5092 41 55 41 55 41C55 41 42.491 41 39.3727 41.8363C37.6507 42.2973 36.2973 43.6505 35.8364 45.3725C35 48.4906 35 55 35 55C35 55 35 61.5094 35.8364 64.6275C36.2973 66.3495 37.6507 67.7028 39.3727 68.1636C42.491 69 55 69 55 69C55 69 67.5092 69 70.6273 68.1636C72.3494 67.7028 73.7028 66.3495 74.1637 64.6275C75.0001 61.5094 75.0001 55 75.0001 55C75.0001 55 74.9968 48.4906 74.1637 45.3725Z" fill="#FF0000"/>
<path d="M50.9963 60.9996L61.3882 55.0006L50.9963 49.0015V60.9996Z" fill="white"/>
</g>
</g>
</g>
<defs>
<filter id="filter0_d_2572_586" x="0" y="0" width="110" height="110" filterUnits="userSpaceOnUse" color-interpolation-filters="sRGB">
<feFlood flood-opacity="0" result="BackgroundImageFix"/>
<feColorMatrix in="SourceAlpha" type="matrix" values="0 0 0 0 0 0 0 0 0 0 0 0 0 0 0 0 0 0 127 0" result="hardAlpha"/>
<feOffset/>
<feGaussianBlur stdDeviation="10"/>
<feComposite in2="hardAlpha" operator="out"/>
<feColorMatrix type="matrix" values="0 0 0 0 0.545098 0 0 0 0 0.360784 0 0 0 0 0.964706 0 0 0 0.8 0"/>
<feBlend mode="normal" in2="BackgroundImageFix" result="effect1_dropShadow_2572_586"/>
<feBlend mode="normal" in="SourceGraphic" in2="effect1_dropShadow_2572_586" result="shape"/>
</filter>
<linearGradient id="paint0_linear_2572_586" x1="20" y1="20" x2="90" y2="90" gradientUnits="userSpaceOnUse">
<stop stop-color="white" stop-opacity="0.3"/>
<stop offset="1" stop-color="white" stop-opacity="0.1"/>
</linearGradient>
<clipPath id="clip0_2572_586">
<rect width="40" height="28" fill="white" transform="translate(35 41)"/>
</clipPath>
<clipPath id="clip1_2572_586">
<rect width="40" height="28" fill="white" transform="translate(35 41)"/>
</clipPath>
</defs>
</svg>
