<svg width="110" height="110" viewBox="0 0 110 110" fill="none" xmlns="http://www.w3.org/2000/svg">
<g filter="url(#filter0_d_2572_620)">
<mask id="path-1-inside-1_2572_620" fill="white">
<path d="M20 55C20 35.67 35.67 20 55 20C74.33 20 90 35.67 90 55C90 74.33 74.33 90 55 90C35.67 90 20 74.33 20 55Z"/>
</mask>
<path d="M20 55C20 35.67 35.67 20 55 20C74.33 20 90 35.67 90 55C90 74.33 74.33 90 55 90C35.67 90 20 74.33 20 55Z" fill="url(#paint0_linear_2572_620)" shape-rendering="crispEdges"/>
<path d="M55 90V89C36.2223 89 21 73.7777 21 55H20H19C19 74.8823 35.1177 91 55 91V90ZM90 55H89C89 73.7777 73.7777 89 55 89V90V91C74.8823 91 91 74.8823 91 55H90ZM55 20V21C73.7777 21 89 36.2223 89 55H90H91C91 35.1177 74.8823 19 55 19V20ZM55 20V19C35.1177 19 19 35.1177 19 55H20H21C21 36.2223 36.2223 21 55 21V20Z" fill="white" fill-opacity="0.4" mask="url(#path-1-inside-1_2572_620)"/>
<path d="M64.3333 53.6666H45.6667C44.1939 53.6666 43 54.8605 43 56.3333V65.6666C43 67.1394 44.1939 68.3333 45.6667 68.3333H64.3333C65.8061 68.3333 67 67.1394 67 65.6666V56.3333C67 54.8605 65.8061 53.6666 64.3333 53.6666Z" stroke="white" stroke-width="2.66667" stroke-linecap="round" stroke-linejoin="round"/>
<path d="M48.3335 53.6666V48.3333C48.3335 46.5652 49.0359 44.8695 50.2861 43.6192C51.5364 42.369 53.2321 41.6666 55.0002 41.6666C56.7683 41.6666 58.464 42.369 59.7142 43.6192C60.9645 44.8695 61.6668 46.5652 61.6668 48.3333V53.6666" stroke="white" stroke-width="2.66667" stroke-linecap="round" stroke-linejoin="round"/>
</g>
<defs>
<filter id="filter0_d_2572_620" x="0" y="0" width="110" height="110" filterUnits="userSpaceOnUse" color-interpolation-filters="sRGB">
<feFlood flood-opacity="0" result="BackgroundImageFix"/>
<feColorMatrix in="SourceAlpha" type="matrix" values="0 0 0 0 0 0 0 0 0 0 0 0 0 0 0 0 0 0 127 0" result="hardAlpha"/>
<feOffset/>
<feGaussianBlur stdDeviation="10"/>
<feComposite in2="hardAlpha" operator="out"/>
<feColorMatrix type="matrix" values="0 0 0 0 0.545098 0 0 0 0 0.360784 0 0 0 0 0.964706 0 0 0 0.8 0"/>
<feBlend mode="normal" in2="BackgroundImageFix" result="effect1_dropShadow_2572_620"/>
<feBlend mode="normal" in="SourceGraphic" in2="effect1_dropShadow_2572_620" result="shape"/>
</filter>
<linearGradient id="paint0_linear_2572_620" x1="20" y1="20" x2="90" y2="90" gradientUnits="userSpaceOnUse">
<stop stop-color="white" stop-opacity="0.3"/>
<stop offset="1" stop-color="white" stop-opacity="0.1"/>
</linearGradient>
</defs>
</svg>
