<svg width="110" height="110" viewBox="0 0 110 110" fill="none" xmlns="http://www.w3.org/2000/svg">
<g filter="url(#filter0_d_2572_610)">
<mask id="path-1-inside-1_2572_610" fill="white">
<path d="M20 55C20 35.67 35.67 20 55 20C74.33 20 90 35.67 90 55C90 74.33 74.33 90 55 90C35.67 90 20 74.33 20 55Z"/>
</mask>
<path d="M20 55C20 35.67 35.67 20 55 20C74.33 20 90 35.67 90 55C90 74.33 74.33 90 55 90C35.67 90 20 74.33 20 55Z" fill="url(#paint0_linear_2572_610)" shape-rendering="crispEdges"/>
<path d="M55 90V89C36.2223 89 21 73.7777 21 55H20H19C19 74.8823 35.1177 91 55 91V90ZM90 55H89C89 73.7777 73.7777 89 55 89V90V91C74.8823 91 91 74.8823 91 55H90ZM55 20V21C73.7777 21 89 36.2223 89 55H90H91C91 35.1177 74.8823 19 55 19V20ZM55 20V19C35.1177 19 19 35.1177 19 55H20H21C21 36.2223 36.2223 21 55 21V20Z" fill="white" fill-opacity="0.4" mask="url(#path-1-inside-1_2572_610)"/>
<g clip-path="url(#clip0_2572_610)">
<path d="M43.9541 34.9539L44.0921 75.1068C47.0171 74.5423 49.3173 74.604 51.9133 74.3692V35L43.9541 34.9539Z" fill="url(#paint1_linear_2572_610)"/>
<path d="M58.1241 35H66.0833L66.1753 75.0146L58.0781 73.6777L58.1241 35Z" fill="url(#paint2_linear_2572_610)"/>
<path d="M44.0459 35C44.2299 35.461 57.8479 74.277 57.8479 74.277C60.0857 74.261 63.0861 74.6271 66.0372 74.9685L51.8671 35H44.0459Z" fill="#E50914"/>
</g>
</g>
<defs>
<filter id="filter0_d_2572_610" x="0" y="0" width="110" height="110" filterUnits="userSpaceOnUse" color-interpolation-filters="sRGB">
<feFlood flood-opacity="0" result="BackgroundImageFix"/>
<feColorMatrix in="SourceAlpha" type="matrix" values="0 0 0 0 0 0 0 0 0 0 0 0 0 0 0 0 0 0 127 0" result="hardAlpha"/>
<feOffset/>
<feGaussianBlur stdDeviation="10"/>
<feComposite in2="hardAlpha" operator="out"/>
<feColorMatrix type="matrix" values="0 0 0 0 0.545098 0 0 0 0 0.360784 0 0 0 0 0.964706 0 0 0 0.8 0"/>
<feBlend mode="normal" in2="BackgroundImageFix" result="effect1_dropShadow_2572_610"/>
<feBlend mode="normal" in="SourceGraphic" in2="effect1_dropShadow_2572_610" result="shape"/>
</filter>
<linearGradient id="paint0_linear_2572_610" x1="20" y1="20" x2="90" y2="90" gradientUnits="userSpaceOnUse">
<stop stop-color="white" stop-opacity="0.3"/>
<stop offset="1" stop-color="white" stop-opacity="0.1"/>
</linearGradient>
<linearGradient id="paint1_linear_2572_610" x1="47.1232" y1="51.9506" x2="52.8521" y2="49.6117" gradientUnits="userSpaceOnUse">
<stop stop-color="#B1060F"/>
<stop offset="0.546072" stop-color="#7B010C"/>
<stop offset="1" stop-color="#E50914" stop-opacity="0"/>
</linearGradient>
<linearGradient id="paint2_linear_2572_610" x1="62.2178" y1="55.8624" x2="56.3585" y2="58.3313" gradientUnits="userSpaceOnUse">
<stop stop-color="#B1060F"/>
<stop offset="0.625007" stop-color="#7B010C"/>
<stop offset="1" stop-color="#B1060F" stop-opacity="0"/>
</linearGradient>
<clipPath id="clip0_2572_610">
<rect width="22" height="40" fill="white" transform="translate(44 35)"/>
</clipPath>
</defs>
</svg>
